<svg width="51" height="51" viewBox="0 0 51 51" fill="none" xmlns="http://www.w3.org/2000/svg">
<g clip-path="url(#clip0_1_91)">
<rect y="0.830078" width="50" height="50" rx="19" fill="#02897A"/>
<path d="M29.1161 27.4283L19.9732 18.2854C19.8661 18.1694 19.7232 18.1158 19.5714 18.1158C19.5 18.1158 19.4196 18.1336 19.3571 18.1604C19.1429 18.2497 19 18.4551 19 18.6872V32.1158C19 32.3479 19.1429 32.5533 19.3571 32.6426C19.4196 32.6694 19.5 32.6872 19.5714 32.6872C19.7232 32.6872 19.8661 32.6247 19.9732 32.5176L22.7589 29.7319L24.4643 33.7676C24.5893 34.0533 24.9196 34.1961 25.2143 34.0711L26.7946 33.4015C27.0804 33.2765 27.2232 32.9461 27.0982 32.6515L25.3036 28.4015H28.7143C28.9464 28.4015 29.1518 28.2586 29.2411 28.0444C29.3304 27.839 29.2857 27.589 29.1161 27.4283Z" fill="white"/>
</g>
<defs>
<clipPath id="clip0_1_91">
<rect width="51" height="50" fill="white" transform="translate(0 0.830078)"/>
</clipPath>
</defs>
</svg>
